<?xml version="1.0" encoding="utf-8"?>
<!-- Generator: Adobe Illustrator 23.0.2, SVG Export Plug-In . SVG Version: 6.00 Build 0)  -->
<svg version="1.1" id="图层_1" xmlns="http://www.w3.org/2000/svg" xmlns:xlink="http://www.w3.org/1999/xlink" x="0px" y="0px"
	 viewBox="0 0 179 37.8" style="enable-background:new 0 0 179 37.8;" xml:space="preserve">
<style type="text/css">
	.st0{fill:#FFFFFF;}
</style>
<title>资源 2</title>
<g>
	<g id="图层_1-2">
		<path class="st0" d="M17.2,35.3C10.4,36.2,6.9,36.7,0,37.8V0c6.6,0.3,9.9,0.4,16.6,0.6v6.1L6.2,6.6v8.6c3.8-0.1,5.8-0.2,9.6-0.3
			V21c-3.9,0.2-5.8,0.4-9.6,0.6v8.9c4.4-0.5,6.6-0.8,11-1.2L17.2,35.3z"/>
		<path class="st0" d="M46.1,1.4C42.7,12,39.3,22.6,36,33.2c-2.8,0.3-4.2,0.4-7,0.7c-3.4-11-6.7-22.1-10-33.2l6.7,0.2
			c2.5,9.5,3.8,14.1,6.3,23.2c0.3,1,0.5,2.1,0.6,3.2h0.1c0.1-1.1,0.3-2.2,0.6-3.3c2.5-9.3,3.8-13.8,6.3-22.6L46.1,1.4z"/>
		<path class="st0" d="M66.8,31.1c-6.9,0.3-10.3,0.5-17.2,1V1.5c6.6,0.1,9.9,0.2,16.5,0.2v5.1H55.8v7.1c3.8-0.1,5.8-0.1,9.6-0.1v5.1
			c-3.8,0.1-5.8,0.1-9.6,0.2v7.3c4.4-0.2,6.6-0.3,11-0.4L66.8,31.1z"/>
		<path class="st0" d="M95.5,30.7c-2.8,0-4.3,0-7.1,0l-4.5-7.5c-0.6-1.1-1.4-2.1-2.3-3c-0.5-0.4-1.2-0.7-1.9-0.6h-1.9v11.2
			c-2.5,0.1-3.7,0.1-6.2,0.2V1.8l10.2,0.1c6.9,0,10.3,2.6,10.3,7.8c0,1.8-0.6,3.6-1.7,5c-1.2,1.5-2.9,2.5-4.8,3v0.1
			c1.3,0.4,2.8,1.9,4.4,4.4C92.2,25.5,93.3,27.2,95.5,30.7z M77.7,6.5v8.3h3c1.3,0.1,2.5-0.4,3.5-1.3c0.9-0.8,1.4-2,1.3-3.2
			c0-2.6-1.6-3.9-4.7-3.9L77.7,6.5z"/>
		<path class="st0" d="M122.9,31.6c-2.5-0.1-3.7-0.2-6.2-0.3V19.1c-4.9-0.1-7.4-0.1-12.3-0.2v12c-2.5-0.1-3.7-0.1-6.2-0.1V1.8h6.2
			v11.7c4.9,0,7.4,0.1,12.3,0.1V1.7l6.2-0.1L122.9,31.6z"/>
		<path class="st0" d="M127.8,17.1c-0.2-4.3,1.3-8.4,4-11.7c2.6-3,6.4-4.8,10.4-4.8c3.8-0.3,7.6,1.4,9.9,4.4
			c2.5,3.1,3.8,7.3,3.8,12.3c0,5.3-1.3,9.4-3.9,12.4s-6,4.2-10.3,3.8c-3.9-0.3-7.6-2.2-10.1-5.2C129.1,25.2,127.7,21.2,127.8,17.1z
			 M134.3,16.9c-0.1,2.7,0.6,5.3,2,7.5c1.2,1.9,3.3,3.1,5.6,3.3c2.2,0.3,4.3-0.7,5.6-2.5c1.3-1.8,2-4.4,2-7.7c0.1-2.8-0.6-5.7-2-8.1
			c-1.2-1.9-3.3-3-5.5-2.9c-2.3-0.1-4.4,1-5.7,2.9C134.9,11.7,134.2,14.3,134.3,16.9z"/>
		<path class="st0" d="M179,6.6h-8.2v29.9c-2.5-0.4-3.7-0.5-6.1-0.9v-29h-8.2V0.8c9-0.3,13.5-0.4,22.5-0.8V6.6z"/>
	</g>
</g>
</svg>
